<mxfile host="app.diagrams.net" modified="2020-12-02T09:44:13.937Z" agent="5.0 (Macintosh; Intel Mac OS X 10_15_7) AppleWebKit/537.36 (KHTML, like Gecko) Chrome/86.0.4240.111 Safari/537.36" etag="Wl88bqANiHpUsb9rUgi4" version="13.10.5" type="github">
  <diagram id="JHFZMjMILcziUzj9Umlh" name="Page-1">
    <mxGraphModel dx="706" dy="1809" grid="1" gridSize="10" guides="1" tooltips="1" connect="1" arrows="1" fold="1" page="1" pageScale="1" pageWidth="827" pageHeight="1169" math="0" shadow="0">
      <root>
        <mxCell id="0" />
        <mxCell id="1" parent="0" />
        <mxCell id="5KKiP9XFNcGuRKCMO90c-1" value="" style="endArrow=classic;html=1;exitX=0.5;exitY=1;exitDx=0;exitDy=0;entryX=0.5;entryY=0;entryDx=0;entryDy=0;" edge="1" parent="1" source="5KKiP9XFNcGuRKCMO90c-2">
          <mxGeometry width="50" height="50" relative="1" as="geometry">
            <mxPoint x="360" y="110" as="sourcePoint" />
            <mxPoint x="360" y="130" as="targetPoint" />
          </mxGeometry>
        </mxCell>
        <mxCell id="5KKiP9XFNcGuRKCMO90c-2" value="&lt;font face=&quot;helvetica&quot;&gt;1.用户正常使用App&lt;/font&gt;" style="rounded=1;whiteSpace=wrap;html=1;fillColor=#dae8fc;strokeColor=#6c8ebf;" vertex="1" parent="1">
          <mxGeometry x="300" y="50" width="120" height="60" as="geometry" />
        </mxCell>
        <mxCell id="5KKiP9XFNcGuRKCMO90c-3" value="是" style="text;html=1;strokeColor=none;fillColor=none;align=center;verticalAlign=middle;whiteSpace=wrap;rounded=0;" vertex="1" parent="1">
          <mxGeometry x="358" y="190" width="40" height="20" as="geometry" />
        </mxCell>
        <mxCell id="5KKiP9XFNcGuRKCMO90c-4" style="edgeStyle=orthogonalEdgeStyle;rounded=0;orthogonalLoop=1;jettySize=auto;html=1;exitX=0;exitY=0.5;exitDx=0;exitDy=0;entryX=1;entryY=0.5;entryDx=0;entryDy=0;" edge="1" parent="1" source="5KKiP9XFNcGuRKCMO90c-6" target="5KKiP9XFNcGuRKCMO90c-7">
          <mxGeometry relative="1" as="geometry" />
        </mxCell>
        <mxCell id="5KKiP9XFNcGuRKCMO90c-5" style="edgeStyle=orthogonalEdgeStyle;rounded=0;orthogonalLoop=1;jettySize=auto;html=1;exitX=0.5;exitY=1;exitDx=0;exitDy=0;entryX=0.5;entryY=0;entryDx=0;entryDy=0;" edge="1" parent="1" source="5KKiP9XFNcGuRKCMO90c-6" target="5KKiP9XFNcGuRKCMO90c-10">
          <mxGeometry relative="1" as="geometry" />
        </mxCell>
        <mxCell id="5KKiP9XFNcGuRKCMO90c-6" value="需要关闭TPNS Push功能" style="rhombus;whiteSpace=wrap;html=1;fillColor=#f5f5f5;strokeColor=#666666;fontColor=#333333;" vertex="1" parent="1">
          <mxGeometry x="275.05999999999995" y="130" width="169.87" height="60" as="geometry" />
        </mxCell>
        <mxCell id="5KKiP9XFNcGuRKCMO90c-7" value="&lt;font face=&quot;helvetica&quot;&gt;流程结束&lt;br&gt;&lt;/font&gt;" style="rounded=1;whiteSpace=wrap;html=1;fillColor=#e1d5e7;strokeColor=#9673a6;" vertex="1" parent="1">
          <mxGeometry x="120" y="130" width="120" height="60" as="geometry" />
        </mxCell>
        <mxCell id="5KKiP9XFNcGuRKCMO90c-8" value="否" style="text;html=1;strokeColor=none;fillColor=none;align=center;verticalAlign=middle;whiteSpace=wrap;rounded=0;" vertex="1" parent="1">
          <mxGeometry x="250" y="130" width="40" height="20" as="geometry" />
        </mxCell>
        <mxCell id="5KKiP9XFNcGuRKCMO90c-9" style="edgeStyle=orthogonalEdgeStyle;rounded=0;orthogonalLoop=1;jettySize=auto;html=1;exitX=0.5;exitY=1;exitDx=0;exitDy=0;entryX=0.5;entryY=0;entryDx=0;entryDy=0;" edge="1" parent="1" source="5KKiP9XFNcGuRKCMO90c-10" target="5KKiP9XFNcGuRKCMO90c-13">
          <mxGeometry relative="1" as="geometry" />
        </mxCell>
        <mxCell id="5KKiP9XFNcGuRKCMO90c-10" value="&lt;font face=&quot;helvetica&quot;&gt;&lt;font color=&quot;#ea6b66&quot;&gt;2.注销Push能力：调用unregisterPush&lt;/font&gt;&lt;br&gt;&lt;/font&gt;" style="rounded=0;whiteSpace=wrap;html=1;fillColor=#fff2cc;strokeColor=#d6b656;" vertex="1" parent="1">
          <mxGeometry x="300" y="220" width="120" height="60" as="geometry" />
        </mxCell>
        <mxCell id="5KKiP9XFNcGuRKCMO90c-11" style="edgeStyle=orthogonalEdgeStyle;rounded=0;orthogonalLoop=1;jettySize=auto;html=1;exitX=0;exitY=0.5;exitDx=0;exitDy=0;entryX=0.5;entryY=1;entryDx=0;entryDy=0;" edge="1" parent="1" source="5KKiP9XFNcGuRKCMO90c-13" target="5KKiP9XFNcGuRKCMO90c-7">
          <mxGeometry relative="1" as="geometry" />
        </mxCell>
        <mxCell id="5KKiP9XFNcGuRKCMO90c-12" style="edgeStyle=orthogonalEdgeStyle;rounded=0;orthogonalLoop=1;jettySize=auto;html=1;exitX=0.5;exitY=1;exitDx=0;exitDy=0;entryX=0.5;entryY=0;entryDx=0;entryDy=0;" edge="1" parent="1" source="5KKiP9XFNcGuRKCMO90c-13" target="5KKiP9XFNcGuRKCMO90c-15">
          <mxGeometry relative="1" as="geometry" />
        </mxCell>
        <mxCell id="5KKiP9XFNcGuRKCMO90c-13" value="需要开启TPNS Push功能" style="rhombus;whiteSpace=wrap;html=1;fillColor=#f5f5f5;strokeColor=#666666;fontColor=#333333;" vertex="1" parent="1">
          <mxGeometry x="270.05999999999995" y="323" width="179.87" height="60" as="geometry" />
        </mxCell>
        <mxCell id="5KKiP9XFNcGuRKCMO90c-14" value="否" style="text;html=1;strokeColor=none;fillColor=none;align=center;verticalAlign=middle;whiteSpace=wrap;rounded=0;" vertex="1" parent="1">
          <mxGeometry x="223" y="320" width="40" height="20" as="geometry" />
        </mxCell>
        <mxCell id="5KKiP9XFNcGuRKCMO90c-15" value="&lt;font color=&quot;#ea6b66&quot;&gt;3.&lt;/font&gt;&lt;span style=&quot;font-family: &amp;#34;helvetica&amp;#34;&quot;&gt;&lt;font color=&quot;#ea6b66&quot;&gt;调用&lt;br&gt;registerPush&lt;br&gt;注册，或者下次打开App进程发起注册&lt;/font&gt;&lt;br&gt;&lt;/span&gt;" style="rounded=0;whiteSpace=wrap;html=1;fillColor=#fff2cc;strokeColor=#d6b656;" vertex="1" parent="1">
          <mxGeometry x="300" y="420" width="126" height="60" as="geometry" />
        </mxCell>
        <mxCell id="5KKiP9XFNcGuRKCMO90c-16" value="是" style="text;html=1;strokeColor=none;fillColor=none;align=center;verticalAlign=middle;whiteSpace=wrap;rounded=0;" vertex="1" parent="1">
          <mxGeometry x="358" y="390" width="40" height="20" as="geometry" />
        </mxCell>
        <mxCell id="5KKiP9XFNcGuRKCMO90c-17" style="edgeStyle=orthogonalEdgeStyle;rounded=0;orthogonalLoop=1;jettySize=auto;html=1;exitX=0.5;exitY=1;exitDx=0;exitDy=0;" edge="1" parent="1">
          <mxGeometry relative="1" as="geometry">
            <mxPoint x="549" y="210" as="targetPoint" />
            <mxPoint x="549" y="200" as="sourcePoint" />
          </mxGeometry>
        </mxCell>
      </root>
    </mxGraphModel>
  </diagram>
</mxfile>
